<svg preserveAspectRatio="none" width="100%" height="100%" overflow="visible" style="display: block;" viewBox="0 0 17.3031 17.3031" fill="none" xmlns="http://www.w3.org/2000/svg">
<g id="Icon">
<path id="Vector" fill-rule="evenodd" clip-rule="evenodd" d="M13.9026 0C15.4382 0 16.6836 1.24477 16.6839 2.78033V13.9026C16.6839 15.4383 15.4383 16.6839 13.9026 16.6839H2.78033C1.24477 16.6836 0 15.4382 0 13.9026V2.78033C0.000143875 1.24485 1.24485 0.000143875 2.78033 0H13.9026Z" fill="black"/>
<path id="Vector_2" d="M8.53416 7.10535C8.79443 6.7045 9.25923 6.13173 10.2997 6.13169C11.5893 6.1318 12.5558 6.974 12.5558 8.78415V12.1636H10.5966V9.01067C10.5966 8.21882 10.3134 7.67815 9.60463 7.67804C9.06309 7.67804 8.74086 8.04192 8.599 8.39413C8.54736 8.52018 8.53416 8.69543 8.53416 8.87184V12.1627H6.57495C6.5752 12.1113 6.60101 6.82003 6.57495 6.26961H8.53416V7.10535Z" fill="white"/>
<path id="Vector_3" d="M5.49075 12.1628H3.53156V6.26967H5.49075V12.1628Z" fill="white"/>
<path id="Vector_4" d="M3.41555 4.44658C3.41577 3.86872 3.8544 3.42909 4.52439 3.42908C5.19473 3.42908 5.60733 3.86866 5.62045 4.44658C5.62045 5.01245 5.19475 5.46592 4.51161 5.46592H4.49882C3.84159 5.46592 3.41555 5.01245 3.41555 4.44658Z" fill="white"/>
</g>
</svg>
